<?xml version="1.0" standalone="no"?>
<!DOCTYPE svg PUBLIC "-//W3C//DTD SVG 20010904//EN"
 "http://www.w3.org/TR/2001/REC-SVG-20010904/DTD/svg10.dtd">
<svg version="1.0" xmlns="http://www.w3.org/2000/svg"
 width="1280.000000pt" height="640.000000pt" viewBox="0 0 1280.000000 640.000000"
 preserveAspectRatio="xMidYMid meet">
<g transform="translate(0.000000,640.000000) scale(0.100000,-0.100000)"
fill="#D3D3D3" stroke="none">
<path d="M0 6298 l0 -105 86 -7 c270 -22 550 -164 720 -363 82 -97 90 -111 73
-128 -19 -18 -159 -75 -184 -75 -12 0 -43 26 -78 65 -135 151 -355 259 -547
267 l-65 3 0 -95 0 -95 68 -7 c135 -15 256 -71 358 -166 91 -84 91 -84 22
-148 -101 -96 -94 -94 -160 -33 -68 61 -155 105 -235 117 l-58 9 0 -98 0 -97
33 -7 c71 -16 127 -57 157 -116 16 -30 17 -42 8 -72 -13 -43 -20 -45 -120 -39
l-78 5 0 -100 0 -100 86 -7 c270 -22 550 -164 720 -363 82 -97 90 -111 73
-128 -19 -18 -159 -75 -184 -75 -12 0 -43 26 -78 65 -135 151 -355 259 -547
267 l-65 3 0 -95 0 -95 68 -7 c135 -15 256 -71 358 -166 91 -84 91 -84 22
-148 -101 -96 -94 -94 -160 -33 -68 61 -155 105 -235 117 l-58 9 0 -98 0 -97
32 -7 c74 -16 130 -58 161 -121 13 -25 14 -38 5 -67 -13 -43 -20 -45 -120 -39
l-78 5 0 -100 0 -100 86 -7 c270 -22 550 -164 720 -363 82 -97 90 -111 73
-128 -19 -18 -159 -75 -184 -75 -12 0 -43 26 -78 65 -135 151 -355 259 -547
267 l-65 3 0 -95 0 -95 68 -7 c135 -15 256 -71 358 -166 91 -84 91 -84 22
-148 -101 -96 -94 -94 -160 -33 -68 61 -155 105 -235 117 l-58 9 0 -98 0 -97
32 -7 c72 -16 128 -57 158 -116 16 -30 17 -42 8 -72 -13 -43 -20 -45 -120 -39
l-78 5 0 -100 0 -100 86 -7 c270 -22 550 -164 720 -363 82 -97 90 -111 73
-128 -19 -18 -159 -75 -184 -75 -12 0 -43 26 -78 65 -135 151 -355 259 -547
267 l-65 3 0 -95 0 -95 68 -7 c135 -15 256 -71 358 -166 91 -84 91 -84 22
-148 -101 -96 -94 -94 -160 -33 -68 61 -155 105 -235 117 l-58 9 0 -98 0 -97
33 -7 c71 -16 127 -57 157 -116 16 -30 17 -42 8 -72 -13 -43 -20 -45 -120 -39
l-78 5 0 -100 0 -100 86 -7 c270 -22 550 -164 720 -363 82 -97 90 -111 73
-128 -19 -18 -159 -75 -184 -75 -12 0 -43 26 -78 65 -135 151 -355 259 -547
267 l-65 3 0 -95 0 -95 68 -7 c135 -15 256 -71 358 -166 91 -84 91 -84 22
-148 -101 -96 -94 -94 -160 -33 -68 61 -155 105 -235 117 l-58 9 0 -98 0 -97
32 -7 c103 -22 192 -118 168 -180 -6 -15 -10 -28 -10 -31 0 -2 53 -4 118 -3
l117 1 50 61 c119 144 338 280 540 334 89 23 118 26 265 26 145 0 177 -3 262
-26 105 -28 231 -83 320 -140 74 -47 205 -163 243 -215 l30 -42 118 0 c64 0
117 2 117 4 0 3 -4 16 -10 31 -18 47 33 121 110 161 49 25 134 24 185 -3 73
-39 122 -112 105 -158 -6 -15 -10 -28 -10 -31 0 -2 53 -4 118 -3 l117 1 50 61
c119 144 338 280 540 334 89 23 118 26 265 26 145 0 177 -3 262 -26 105 -28
231 -83 320 -140 74 -47 205 -163 243 -215 l30 -42 118 0 c64 0 117 2 117 4 0
3 -4 16 -10 31 -17 46 32 119 105 158 78 41 192 21 251 -45 39 -42 55 -84 44
-113 -6 -15 -10 -28 -10 -31 0 -2 53 -4 118 -3 l117 1 50 61 c119 144 338 280
540 334 89 23 118 26 265 26 145 0 177 -3 262 -26 105 -28 231 -83 320 -140
74 -47 205 -163 243 -215 l30 -42 118 0 c64 0 117 2 117 4 0 3 -4 16 -10 31
-11 30 12 85 52 121 107 98 274 69 339 -58 15 -29 17 -43 9 -63 -6 -15 -10
-28 -10 -31 0 -2 53 -4 118 -3 l117 1 50 61 c119 144 338 280 540 334 89 23
118 26 265 26 145 0 177 -3 263 -26 105 -28 257 -95 333 -148 72 -49 195 -161
229 -207 l30 -42 118 0 c64 0 117 2 117 4 0 3 -4 16 -10 31 -8 20 -6 34 9 63
80 156 302 156 382 0 15 -29 17 -43 9 -63 -6 -15 -10 -28 -10 -31 0 -2 53 -4
118 -3 l117 1 50 61 c119 144 338 280 540 334 89 23 118 26 265 26 145 0 177
-3 263 -26 105 -28 257 -95 333 -148 72 -49 195 -161 229 -207 l30 -42 118 0
c64 0 117 2 117 4 0 3 -4 16 -10 31 -24 62 65 158 168 180 l32 7 0 97 0 98
-57 -9 c-81 -12 -168 -56 -236 -117 -66 -61 -59 -63 -160 33 -69 64 -69 64 22
148 102 95 223 151 358 166 l68 7 0 95 0 95 -65 -3 c-88 -3 -180 -27 -278 -73
-111 -51 -196 -113 -275 -200 l-65 -71 -89 37 c-48 21 -94 43 -102 51 -17 16
-9 30 73 127 170 199 450 341 720 363 l86 7 0 100 0 100 -77 -5 c-101 -6 -108
-4 -121 39 -9 30 -8 42 8 72 30 59 86 100 158 116 l32 7 0 97 0 98 -57 -9
c-81 -12 -168 -56 -236 -117 -66 -61 -59 -63 -160 33 -69 64 -69 64 22 148
102 95 223 151 358 166 l68 7 0 95 0 95 -65 -3 c-88 -3 -180 -27 -278 -73
-111 -51 -196 -113 -275 -200 l-65 -71 -89 37 c-48 21 -94 43 -102 51 -17 16
-9 30 73 127 170 199 450 341 720 363 l86 7 0 100 0 100 -77 -5 c-101 -6 -108
-4 -121 39 -9 30 -8 42 8 72 30 59 86 100 158 116 l32 7 0 97 0 98 -57 -9
c-81 -12 -168 -56 -236 -117 -66 -61 -59 -63 -160 33 -69 64 -69 64 22 148
102 95 223 151 358 166 l68 7 0 95 0 95 -65 -3 c-88 -3 -180 -27 -278 -73
-111 -51 -196 -113 -275 -200 l-65 -71 -89 37 c-48 21 -94 43 -102 51 -17 16
-9 30 73 127 170 199 450 341 720 363 l86 7 0 100 0 100 -77 -5 c-101 -6 -108
-4 -121 39 -9 30 -8 42 8 72 30 59 86 100 158 116 l32 7 0 97 0 98 -58 -9
c-80 -12 -167 -56 -235 -117 -66 -61 -59 -63 -160 33 -69 64 -69 64 22 148
102 95 223 151 358 166 l68 7 0 95 0 95 -65 -3 c-88 -3 -180 -27 -278 -73
-111 -51 -196 -113 -275 -200 l-65 -71 -89 37 c-48 21 -94 43 -102 51 -17 16
-9 30 73 127 170 199 450 341 720 363 l86 7 0 100 0 100 -77 -5 c-101 -6 -108
-4 -121 39 -9 30 -8 42 8 72 30 59 86 100 158 116 l32 7 0 97 0 98 -57 -9
c-81 -12 -168 -56 -236 -117 -66 -61 -59 -63 -160 33 -69 64 -69 64 22 148
102 95 223 151 358 166 l68 7 0 95 0 95 -65 -3 c-88 -3 -180 -27 -278 -73
-111 -51 -196 -113 -275 -200 l-65 -71 -89 37 c-48 21 -94 43 -102 51 -17 16
-9 30 73 127 170 199 450 341 720 363 l86 7 0 105 0 105 -62 -8 c-35 -4 -72
-7 -83 -6 -70 7 -265 11 -265 6 0 -4 5 -16 11 -27 8 -15 8 -23 -3 -33 -18 -18
-158 -75 -183 -75 -12 0 -45 28 -83 70 l-63 70 -227 -1 c-211 -1 -223 -2 -172
-14 118 -29 229 -94 313 -184 34 -37 46 -55 40 -66 -10 -16 -141 -135 -150
-135 -3 0 -28 21 -57 46 -108 98 -189 129 -321 122 -100 -5 -183 -42 -267
-117 -31 -28 -59 -51 -62 -51 -8 0 -139 119 -149 135 -6 11 6 29 40 66 80 86
200 157 310 183 55 14 47 14 -169 15 l-226 1 -71 -76 -70 -76 -88 37 c-107 45
-119 55 -104 83 6 11 11 23 11 27 0 3 -55 4 -122 1 -68 -3 -141 -5 -163 -4
-22 1 -78 2 -125 2 -47 0 -103 -1 -125 -2 -22 -1 -95 1 -162 4 -68 3 -123 2
-123 -1 0 -4 5 -16 11 -27 8 -15 8 -23 -3 -33 -18 -18 -158 -75 -183 -75 -12
0 -45 28 -83 70 l-63 70 -227 -1 c-211 -1 -223 -2 -172 -14 118 -29 229 -94
313 -184 34 -37 46 -55 40 -66 -10 -16 -141 -135 -150 -135 -3 0 -28 21 -57
46 -108 98 -189 129 -321 122 -100 -5 -183 -42 -267 -117 -31 -28 -59 -51 -62
-51 -8 0 -139 119 -149 135 -6 11 6 29 40 66 80 86 200 157 310 183 55 14 47
14 -169 15 l-226 1 -71 -76 -70 -76 -88 37 c-107 45 -119 55 -104 83 6 11 11
23 11 27 0 3 -55 4 -122 1 -68 -3 -141 -5 -163 -4 -22 1 -78 2 -125 2 -47 0
-103 -1 -125 -2 -22 -1 -95 1 -162 4 -68 3 -123 2 -123 -1 0 -4 5 -16 11 -27
8 -15 8 -23 -3 -33 -18 -18 -158 -75 -183 -75 -12 0 -45 28 -83 70 l-63 70
-227 -1 c-211 -1 -223 -2 -172 -14 118 -29 229 -94 313 -184 34 -37 46 -55 40
-66 -10 -16 -141 -135 -150 -135 -3 0 -28 21 -57 46 -108 98 -189 129 -321
122 -100 -5 -183 -42 -267 -117 -31 -28 -59 -51 -62 -51 -8 0 -139 119 -149
135 -6 11 6 29 40 66 80 86 200 157 310 183 55 14 47 14 -169 15 l-226 1 -71
-76 -70 -76 -88 37 c-107 45 -119 55 -104 83 6 11 11 23 11 27 0 3 -55 4 -122
1 -68 -3 -141 -5 -163 -4 -22 1 -78 2 -125 2 -47 0 -103 -1 -125 -2 -22 -1
-95 1 -162 4 -68 3 -123 2 -123 -1 0 -4 5 -16 11 -27 8 -15 8 -23 -3 -33 -18
-18 -158 -75 -183 -75 -12 0 -45 28 -83 70 l-63 70 -227 -1 c-211 -1 -223 -2
-172 -14 118 -29 229 -94 313 -184 34 -37 46 -55 40 -66 -10 -16 -141 -135
-150 -135 -3 0 -28 21 -57 46 -108 98 -189 129 -321 122 -100 -5 -183 -42
-267 -117 -31 -28 -59 -51 -62 -51 -8 0 -139 119 -149 135 -6 11 6 29 40 66
80 86 200 157 310 183 55 14 47 14 -169 15 l-226 1 -71 -76 -70 -76 -88 37
c-107 45 -119 55 -104 83 6 11 11 23 11 27 0 3 -55 4 -122 1 -68 -3 -141 -5
-163 -4 -22 1 -78 2 -125 2 -47 0 -103 -1 -125 -2 -22 -1 -95 1 -162 4 -68 3
-123 2 -123 -1 0 -4 5 -16 11 -27 8 -15 8 -23 -3 -33 -18 -18 -158 -75 -183
-75 -12 0 -45 28 -83 70 l-63 70 -227 -1 c-211 -1 -223 -2 -172 -14 118 -29
229 -94 313 -184 34 -37 46 -55 40 -66 -10 -16 -141 -135 -150 -135 -3 0 -28
21 -57 46 -108 98 -189 129 -321 122 -100 -5 -183 -42 -267 -117 -31 -28 -59
-51 -62 -51 -8 0 -139 119 -149 135 -6 11 6 29 40 66 80 86 200 157 310 183
55 14 47 14 -169 15 l-226 1 -71 -76 -70 -76 -88 37 c-107 45 -119 55 -104 83
6 11 11 23 11 27 0 5 -195 1 -265 -6 -11 -1 -48 2 -82 6 l-63 8 0 -105z m2825
-142 c197 -50 414 -183 541 -333 82 -97 90 -111 73 -128 -19 -18 -159 -75
-184 -75 -12 0 -43 26 -78 65 -102 114 -265 211 -422 251 -97 24 -295 24 -390
0 -161 -42 -317 -136 -428 -257 l-65 -71 -89 37 c-48 21 -94 43 -102 51 -17
16 -9 30 73 127 153 180 406 318 651 357 104 16 307 4 420 -24z m2560 0 c197
-50 414 -183 541 -333 82 -97 90 -111 73 -128 -19 -18 -159 -75 -184 -75 -12
0 -43 26 -78 65 -102 114 -265 211 -422 251 -97 24 -295 24 -390 0 -161 -42
-317 -136 -428 -257 l-65 -71 -89 37 c-48 21 -94 43 -102 51 -17 16 -9 30 73
127 153 180 406 318 651 357 104 16 307 4 420 -24z m2560 0 c197 -50 414 -183
541 -333 82 -97 90 -111 73 -128 -19 -18 -159 -75 -184 -75 -12 0 -43 26 -78
65 -102 114 -265 211 -422 251 -97 24 -295 24 -390 0 -161 -42 -317 -136 -428
-257 l-65 -71 -89 37 c-48 21 -94 43 -102 51 -17 16 -9 30 73 127 153 180 406
318 651 357 104 16 307 4 420 -24z m2560 0 c197 -50 414 -183 541 -333 82 -97
90 -111 73 -128 -19 -18 -159 -75 -184 -75 -12 0 -43 26 -78 65 -102 114 -265
211 -422 251 -97 24 -295 24 -390 0 -161 -42 -317 -136 -428 -257 l-65 -71
-89 37 c-48 21 -94 43 -102 51 -17 16 -9 30 73 127 153 180 406 318 651 357
104 16 307 4 420 -24z m-9132 -202 c45 -23 76 -53 98 -97 19 -35 19 -39 3 -72
-9 -19 -20 -35 -25 -36 -5 0 -81 -1 -169 -1 -88 0 -164 1 -169 1 -5 1 -16 17
-25 36 -16 32 -16 37 0 67 55 110 182 155 287 102z m2560 0 c45 -23 76 -53 98
-97 19 -35 19 -39 3 -72 -9 -19 -20 -35 -25 -36 -5 0 -81 -1 -169 -1 -88 0
-164 1 -169 1 -5 1 -16 17 -25 36 -16 32 -16 37 0 67 55 110 182 155 287 102z
m2560 0 c45 -23 76 -53 98 -97 19 -35 19 -39 3 -72 -9 -19 -20 -35 -25 -36 -5
0 -81 -1 -169 -1 -88 0 -164 1 -169 1 -5 1 -16 17 -25 36 -16 32 -16 37 0 67
55 110 182 155 287 102z m2560 0 c45 -23 76 -53 98 -97 19 -35 19 -39 3 -72
-9 -19 -20 -35 -25 -36 -5 0 -81 -1 -169 -1 -88 0 -164 1 -169 1 -5 1 -16 17
-25 36 -16 32 -16 37 0 67 55 110 182 155 287 102z m2560 0 c45 -23 76 -53 98
-97 19 -35 19 -39 3 -72 -9 -19 -20 -35 -25 -36 -5 0 -81 -1 -169 -1 -88 0
-164 1 -169 1 -5 1 -16 17 -25 36 -16 32 -16 37 0 67 55 110 182 155 287 102z
m-8903 -210 c94 -21 200 -77 275 -146 97 -89 97 -89 28 -154 -101 -96 -94 -94
-160 -33 -68 61 -155 105 -235 117 -120 19 -249 -25 -351 -117 -66 -61 -59
-63 -160 33 -69 64 -69 64 22 148 102 95 221 150 358 166 79 9 132 6 223 -14z
m2560 0 c94 -21 200 -77 275 -146 97 -89 97 -89 28 -154 -101 -96 -94 -94
-160 -33 -68 61 -155 105 -235 117 -120 19 -249 -25 -351 -117 -66 -61 -59
-63 -160 33 -69 64 -69 64 22 148 102 95 221 150 358 166 79 9 132 6 223 -14z
m2560 0 c94 -21 200 -77 275 -146 97 -89 97 -89 28 -154 -101 -96 -94 -94
-160 -33 -102 92 -231 136 -350 117 -81 -12 -168 -56 -236 -117 -66 -61 -59
-63 -160 33 -69 64 -69 64 22 148 102 95 221 150 358 166 79 9 132 6 223 -14z
m2560 0 c94 -21 200 -77 275 -146 97 -89 97 -89 28 -154 -101 -96 -94 -94
-160 -33 -102 92 -231 136 -350 117 -81 -12 -168 -56 -236 -117 -66 -61 -59
-63 -160 33 -69 64 -69 64 22 148 102 95 221 150 358 166 79 9 132 6 223 -14z
m-8848 -228 c192 -49 356 -144 505 -293 104 -104 133 -148 111 -168 -18 -18
-158 -75 -183 -75 -12 0 -43 26 -78 65 -72 80 -160 144 -269 194 -125 58 -202
75 -348 75 -146 0 -223 -17 -348 -75 -111 -51 -196 -113 -275 -200 l-65 -71
-89 37 c-48 21 -94 43 -101 50 -19 17 -5 42 71 128 163 185 406 318 653 357
101 16 306 4 416 -24z m2560 0 c192 -49 356 -144 505 -293 104 -104 133 -148
111 -168 -18 -18 -158 -75 -183 -75 -12 0 -43 26 -78 65 -72 80 -160 144 -269
194 -125 58 -202 75 -348 75 -146 0 -223 -17 -348 -75 -111 -51 -196 -113
-275 -200 l-65 -71 -89 37 c-48 21 -94 43 -101 50 -19 17 -5 42 71 128 163
185 406 318 653 357 101 16 306 4 416 -24z m2560 0 c192 -49 356 -144 505
-293 104 -104 133 -148 111 -168 -18 -18 -158 -75 -183 -75 -12 0 -43 26 -78
65 -72 80 -160 144 -269 194 -125 58 -202 75 -348 75 -146 0 -223 -17 -348
-75 -111 -51 -196 -113 -275 -200 l-65 -71 -89 37 c-48 21 -94 43 -101 50 -19
17 -5 42 71 128 163 185 406 318 653 357 101 16 306 4 416 -24z m2561 0 c116
-30 263 -97 356 -163 78 -56 234 -210 257 -255 13 -25 14 -33 2 -43 -18 -18
-158 -75 -183 -75 -12 0 -43 26 -78 65 -72 80 -160 144 -269 194 -125 58 -202
75 -348 75 -146 0 -223 -17 -348 -75 -111 -51 -196 -113 -275 -200 l-65 -71
-89 37 c-48 21 -94 43 -101 50 -19 17 -5 42 71 128 163 185 406 318 653 357
102 16 306 4 417 -24z m2560 0 c116 -30 263 -97 356 -163 78 -56 234 -210 257
-255 13 -25 14 -33 2 -43 -18 -18 -158 -75 -183 -75 -12 0 -43 26 -78 65 -72
80 -160 144 -269 194 -125 58 -202 75 -348 75 -146 0 -223 -17 -348 -75 -111
-51 -196 -113 -275 -200 l-65 -71 -89 37 c-48 21 -94 43 -101 50 -19 17 -5 42
71 128 163 185 406 318 653 357 102 16 306 4 417 -24z m-9130 -202 c45 -23 76
-53 97 -95 16 -30 17 -42 8 -73 -6 -20 -17 -36 -25 -37 -7 0 -85 0 -173 0 -88
0 -166 0 -173 0 -8 1 -19 17 -25 37 -9 30 -8 43 5 68 54 108 182 153 286 100z
m2560 0 c45 -23 76 -53 97 -95 16 -30 17 -42 8 -73 -6 -20 -17 -36 -25 -37 -7
0 -85 0 -173 0 -88 0 -166 0 -173 0 -8 1 -19 17 -25 37 -9 30 -8 43 5 68 54
108 182 153 286 100z m2560 0 c45 -23 76 -53 97 -95 16 -30 17 -42 8 -73 -6
-20 -17 -36 -25 -37 -7 0 -85 0 -173 0 -88 0 -166 0 -173 0 -8 1 -19 17 -25
37 -9 30 -8 43 5 68 54 108 182 153 286 100z m2560 0 c45 -23 76 -53 97 -95
16 -30 17 -42 8 -73 -6 -20 -17 -36 -25 -37 -7 0 -85 0 -173 0 -88 0 -166 0
-173 0 -8 1 -19 17 -25 37 -9 30 -8 43 5 68 54 108 182 153 286 100z m-8845
-226 c92 -33 185 -94 252 -164 37 -39 49 -58 43 -69 -10 -16 -141 -135 -150
-135 -3 0 -28 21 -57 46 -108 98 -189 129 -321 122 -100 -5 -183 -42 -267
-117 -31 -28 -59 -51 -62 -51 -8 0 -139 119 -149 135 -6 11 6 29 40 66 78 83
181 146 298 181 92 27 275 20 373 -14z m2560 0 c92 -33 185 -94 252 -164 37
-39 49 -58 43 -69 -10 -16 -141 -135 -150 -135 -3 0 -28 21 -57 46 -108 98
-189 129 -321 122 -100 -5 -183 -42 -267 -117 -31 -28 -59 -51 -62 -51 -8 0
-139 119 -149 135 -6 11 6 29 40 66 78 83 181 146 298 181 92 27 275 20 373
-14z m2560 0 c92 -33 185 -94 252 -164 37 -39 49 -58 43 -69 -10 -16 -141
-135 -150 -135 -3 0 -28 21 -57 46 -108 98 -189 129 -321 122 -100 -5 -183
-42 -267 -117 -31 -28 -59 -51 -62 -51 -8 0 -139 119 -149 135 -6 11 6 29 40
66 78 83 181 146 298 181 92 27 275 20 373 -14z m2560 0 c92 -33 185 -94 252
-164 37 -39 49 -58 43 -69 -10 -16 -141 -135 -150 -135 -3 0 -28 21 -57 46
-108 98 -189 129 -321 122 -100 -5 -183 -42 -267 -117 -31 -28 -59 -51 -62
-51 -8 0 -139 119 -149 135 -6 11 6 29 40 66 78 83 181 146 298 181 92 27 275
20 373 -14z m2560 0 c92 -33 185 -94 252 -164 37 -39 49 -58 43 -69 -10 -16
-141 -135 -150 -135 -3 0 -28 21 -57 46 -108 98 -189 129 -321 122 -100 -5
-183 -42 -267 -117 -31 -28 -59 -51 -62 -51 -8 0 -139 119 -149 135 -6 11 6
29 40 66 78 83 181 146 298 181 92 27 275 20 373 -14z m-8903 -212 c197 -50
414 -183 541 -333 82 -97 90 -111 73 -128 -19 -18 -159 -75 -184 -75 -12 0
-43 26 -78 65 -102 114 -265 211 -422 251 -97 24 -295 24 -390 0 -161 -42
-317 -136 -428 -257 l-65 -71 -89 37 c-48 21 -94 43 -102 51 -17 16 -9 30 73
127 153 180 406 318 651 357 104 16 307 4 420 -24z m2560 0 c197 -50 414 -183
541 -333 82 -97 90 -111 73 -128 -19 -18 -159 -75 -184 -75 -12 0 -43 26 -78
65 -102 114 -265 211 -422 251 -97 24 -295 24 -390 0 -161 -42 -317 -136 -428
-257 l-65 -71 -89 37 c-48 21 -94 43 -102 51 -17 16 -9 30 73 127 153 180 406
318 651 357 104 16 307 4 420 -24z m2560 0 c197 -50 414 -183 541 -333 82 -97
90 -111 73 -128 -19 -18 -159 -75 -184 -75 -12 0 -43 26 -78 65 -102 114 -265
211 -422 251 -97 24 -295 24 -390 0 -161 -42 -317 -136 -428 -257 l-65 -71
-89 37 c-48 21 -94 43 -102 51 -17 16 -9 30 73 127 153 180 406 318 651 357
104 16 307 4 420 -24z m2560 0 c197 -50 414 -183 541 -333 82 -97 90 -111 73
-128 -19 -18 -159 -75 -184 -75 -12 0 -43 26 -78 65 -102 114 -265 211 -422
251 -97 24 -295 24 -390 0 -161 -42 -317 -136 -428 -257 l-65 -71 -89 37 c-48
21 -94 43 -102 51 -17 16 -9 30 73 127 153 180 406 318 651 357 104 16 307 4
420 -24z m-9132 -202 c45 -23 76 -53 98 -97 19 -35 19 -39 3 -72 -9 -19 -20
-35 -25 -36 -5 0 -81 -1 -169 -1 -88 0 -164 1 -169 1 -5 1 -16 17 -25 36 -16
32 -16 37 0 67 55 110 182 155 287 102z m2560 0 c45 -23 76 -53 98 -97 19 -35
19 -39 3 -72 -9 -19 -20 -35 -25 -36 -5 0 -81 -1 -169 -1 -88 0 -164 1 -169 1
-5 1 -16 17 -25 36 -16 32 -16 37 0 67 55 110 182 155 287 102z m2560 0 c45
-23 76 -53 98 -97 19 -35 19 -39 3 -72 -9 -19 -20 -35 -25 -36 -5 0 -81 -1
-169 -1 -88 0 -164 1 -169 1 -5 1 -16 17 -25 36 -16 32 -16 37 0 67 55 110
182 155 287 102z m2560 0 c45 -23 76 -53 98 -97 19 -35 19 -39 3 -72 -9 -19
-20 -35 -25 -36 -5 0 -81 -1 -169 -1 -88 0 -164 1 -169 1 -5 1 -16 17 -25 36
-16 32 -16 37 0 67 55 110 182 155 287 102z m2560 0 c45 -23 76 -53 98 -97 19
-35 19 -39 3 -72 -9 -19 -20 -35 -25 -36 -5 0 -81 -1 -169 -1 -88 0 -164 1
-169 1 -5 1 -16 17 -25 36 -16 32 -16 37 0 67 55 110 182 155 287 102z m-8903
-210 c94 -21 200 -77 275 -146 97 -89 97 -89 28 -154 -101 -96 -94 -94 -160
-33 -68 61 -155 105 -235 117 -120 19 -249 -25 -351 -117 -66 -61 -59 -63
-160 33 -69 64 -69 64 22 148 102 95 221 150 358 166 79 9 132 6 223 -14z
m2560 0 c94 -21 200 -77 275 -146 97 -89 97 -89 28 -154 -101 -96 -94 -94
-160 -33 -177 161 -409 161 -586 0 -66 -61 -59 -63 -160 33 -69 64 -69 64 22
148 102 95 221 150 358 166 79 9 132 6 223 -14z m2560 0 c94 -21 200 -77 275
-146 97 -89 97 -89 28 -154 -101 -96 -94 -94 -160 -33 -102 92 -231 136 -350
117 -81 -12 -168 -56 -236 -117 -66 -61 -59 -63 -160 33 -69 64 -69 64 22 148
102 95 221 150 358 166 79 9 132 6 223 -14z m2560 0 c94 -21 200 -77 275 -146
97 -89 97 -89 28 -154 -101 -96 -94 -94 -160 -33 -102 92 -231 136 -350 117
-81 -12 -168 -56 -236 -117 -66 -61 -59 -63 -160 33 -69 64 -69 64 22 148 102
95 221 150 358 166 79 9 132 6 223 -14z m-8848 -228 c192 -49 356 -144 505
-293 104 -104 133 -148 111 -168 -18 -18 -158 -75 -183 -75 -12 0 -43 26 -78
65 -72 80 -160 144 -269 194 -125 58 -202 75 -348 75 -146 0 -223 -17 -348
-75 -111 -51 -196 -113 -275 -200 l-65 -71 -89 37 c-48 21 -94 43 -101 50 -19
17 -5 42 71 128 163 185 406 318 653 357 101 16 306 4 416 -24z m2560 0 c192
-49 356 -144 505 -293 104 -104 133 -148 111 -168 -18 -18 -158 -75 -183 -75
-12 0 -43 26 -78 65 -72 80 -160 144 -269 194 -125 58 -202 75 -348 75 -146 0
-223 -17 -348 -75 -111 -51 -196 -113 -275 -200 l-65 -71 -89 37 c-48 21 -94
43 -101 50 -19 17 -5 42 71 128 163 185 406 318 653 357 101 16 306 4 416 -24z
m2560 0 c192 -49 356 -144 505 -293 104 -104 133 -148 111 -168 -18 -18 -158
-75 -183 -75 -12 0 -43 26 -78 65 -72 80 -160 144 -269 194 -125 58 -202 75
-348 75 -146 0 -223 -17 -348 -75 -111 -51 -196 -113 -275 -200 l-65 -71 -89
37 c-48 21 -94 43 -101 50 -19 17 -5 42 71 128 163 185 406 318 653 357 101
16 306 4 416 -24z m2561 0 c116 -30 263 -97 356 -163 78 -56 234 -210 257
-255 13 -25 14 -33 2 -43 -18 -18 -158 -75 -183 -75 -12 0 -43 26 -78 65 -72
80 -160 144 -269 194 -125 58 -202 75 -348 75 -146 0 -223 -17 -348 -75 -111
-51 -196 -113 -275 -200 l-65 -71 -89 37 c-48 21 -94 43 -101 50 -19 17 -5 42
71 128 163 185 406 318 653 357 102 16 306 4 417 -24z m2560 0 c116 -30 263
-97 356 -163 78 -56 234 -210 257 -255 13 -25 14 -33 2 -43 -18 -18 -158 -75
-183 -75 -12 0 -43 26 -78 65 -72 80 -160 144 -269 194 -125 58 -202 75 -348
75 -146 0 -223 -17 -348 -75 -111 -51 -196 -113 -275 -200 l-65 -71 -89 37
c-48 21 -94 43 -101 50 -19 17 -5 42 71 128 163 185 406 318 653 357 102 16
306 4 417 -24z m-9130 -202 c45 -23 76 -53 97 -95 16 -30 17 -42 8 -73 -6 -20
-17 -36 -25 -37 -7 0 -85 0 -173 0 -88 0 -166 0 -173 0 -8 1 -19 17 -25 37 -9
30 -8 43 5 68 54 108 182 153 286 100z m2560 0 c45 -23 76 -53 97 -95 16 -30
17 -42 8 -73 -6 -20 -17 -36 -25 -37 -7 0 -85 0 -173 0 -88 0 -166 0 -173 0
-8 1 -19 17 -25 37 -9 30 -8 43 5 68 54 108 182 153 286 100z m2560 0 c45 -23
76 -53 97 -95 16 -30 17 -42 8 -73 -6 -20 -17 -36 -25 -37 -7 0 -85 0 -173 0
-88 0 -166 0 -173 0 -8 1 -19 17 -25 37 -9 30 -8 43 5 68 54 108 182 153 286
100z m2560 0 c45 -23 76 -53 97 -95 16 -30 17 -42 8 -73 -6 -20 -17 -36 -25
-37 -7 0 -85 0 -173 0 -88 0 -166 0 -173 0 -8 1 -19 17 -25 37 -9 30 -8 43 5
68 54 108 182 153 286 100z m-8845 -226 c92 -33 185 -94 252 -164 37 -39 49
-58 43 -69 -10 -16 -141 -135 -150 -135 -3 0 -28 21 -57 46 -108 98 -189 129
-321 122 -100 -5 -183 -42 -267 -117 -31 -28 -59 -51 -62 -51 -8 0 -139 119
-149 135 -6 11 6 29 40 66 78 83 181 146 298 181 92 27 275 20 373 -14z m2560
0 c92 -33 185 -94 252 -164 37 -39 49 -58 43 -69 -10 -16 -141 -135 -150 -135
-3 0 -28 21 -57 46 -108 98 -189 129 -321 122 -100 -5 -183 -42 -267 -117 -31
-28 -59 -51 -62 -51 -8 0 -139 119 -149 135 -6 11 6 29 40 66 78 83 181 146
298 181 92 27 275 20 373 -14z m2560 0 c92 -33 185 -94 252 -164 37 -39 49
-58 43 -69 -10 -16 -141 -135 -150 -135 -3 0 -28 21 -57 46 -108 98 -189 129
-321 122 -100 -5 -183 -42 -267 -117 -31 -28 -59 -51 -62 -51 -8 0 -139 119
-149 135 -6 11 6 29 40 66 78 83 181 146 298 181 92 27 275 20 373 -14z m2560
0 c92 -33 185 -94 252 -164 37 -39 49 -58 43 -69 -10 -16 -141 -135 -150 -135
-3 0 -28 21 -57 46 -108 98 -189 129 -321 122 -100 -5 -183 -42 -267 -117 -31
-28 -59 -51 -62 -51 -8 0 -139 119 -149 135 -6 11 6 29 40 66 78 83 181 146
298 181 92 27 275 20 373 -14z m2560 0 c92 -33 185 -94 252 -164 37 -39 49
-58 43 -69 -10 -16 -141 -135 -150 -135 -3 0 -28 21 -57 46 -108 98 -189 129
-321 122 -100 -5 -183 -42 -267 -117 -31 -28 -59 -51 -62 -51 -8 0 -139 119
-149 135 -6 11 6 29 40 66 78 83 181 146 298 181 92 27 275 20 373 -14z
m-8903 -212 c197 -50 414 -183 541 -333 82 -97 90 -111 73 -128 -19 -18 -159
-75 -184 -75 -12 0 -43 26 -78 65 -102 114 -265 211 -422 251 -97 24 -295 24
-390 0 -161 -42 -317 -136 -428 -257 l-65 -71 -89 37 c-48 21 -94 43 -102 51
-17 16 -9 30 73 127 153 180 406 318 651 357 104 16 307 4 420 -24z m2560 0
c197 -50 414 -183 541 -333 82 -97 90 -111 73 -128 -19 -18 -159 -75 -184 -75
-12 0 -43 26 -78 65 -102 114 -265 211 -422 251 -97 24 -295 24 -390 0 -161
-42 -317 -136 -428 -257 l-65 -71 -89 37 c-48 21 -94 43 -102 51 -17 16 -9 30
73 127 153 180 406 318 651 357 104 16 307 4 420 -24z m2560 0 c197 -50 414
-183 541 -333 82 -97 90 -111 73 -128 -19 -18 -159 -75 -184 -75 -12 0 -43 26
-78 65 -102 114 -265 211 -422 251 -97 24 -295 24 -390 0 -161 -42 -317 -136
-428 -257 l-65 -71 -89 37 c-48 21 -94 43 -102 51 -17 16 -9 30 73 127 153
180 406 318 651 357 104 16 307 4 420 -24z m2560 0 c197 -50 414 -183 541
-333 82 -97 90 -111 73 -128 -19 -18 -159 -75 -184 -75 -12 0 -43 26 -78 65
-102 114 -265 211 -422 251 -97 24 -295 24 -390 0 -161 -42 -317 -136 -428
-257 l-65 -71 -89 37 c-48 21 -94 43 -102 51 -17 16 -9 30 73 127 153 180 406
318 651 357 104 16 307 4 420 -24z m-9132 -202 c45 -23 76 -53 98 -97 19 -35
19 -39 3 -72 -9 -19 -20 -35 -25 -36 -5 0 -81 -1 -169 -1 -88 0 -164 1 -169 1
-5 1 -16 17 -25 36 -16 32 -16 37 0 67 55 110 182 155 287 102z m2560 0 c45
-23 76 -53 98 -97 19 -35 19 -39 3 -72 -9 -19 -20 -35 -25 -36 -5 0 -81 -1
-169 -1 -88 0 -164 1 -169 1 -5 1 -16 17 -25 36 -16 32 -16 37 0 67 55 110
182 155 287 102z m2560 0 c45 -23 76 -53 98 -97 19 -35 19 -39 3 -72 -9 -19
-20 -35 -25 -36 -5 0 -81 -1 -169 -1 -88 0 -164 1 -169 1 -5 1 -16 17 -25 36
-16 32 -16 37 0 67 55 110 182 155 287 102z m2560 0 c45 -23 76 -53 98 -97 19
-35 19 -39 3 -72 -9 -19 -20 -35 -25 -36 -5 0 -81 -1 -169 -1 -88 0 -164 1
-169 1 -5 1 -16 17 -25 36 -16 32 -16 37 0 67 55 110 182 155 287 102z m2560
0 c45 -23 76 -53 98 -97 19 -35 19 -39 3 -72 -9 -19 -20 -35 -25 -36 -5 0 -81
-1 -169 -1 -88 0 -164 1 -169 1 -5 1 -16 17 -25 36 -16 32 -16 37 0 67 55 110
182 155 287 102z m-8903 -210 c94 -21 200 -77 275 -146 97 -89 97 -89 28 -154
-101 -96 -94 -94 -160 -33 -68 61 -155 105 -235 117 -120 19 -249 -25 -351
-117 -66 -61 -59 -63 -160 33 -69 64 -69 64 22 148 102 95 221 150 358 166 79
9 132 6 223 -14z m2560 0 c94 -21 200 -77 275 -146 97 -89 97 -89 28 -154
-101 -96 -94 -94 -160 -33 -177 161 -409 161 -586 0 -66 -61 -59 -63 -160 33
-69 64 -69 64 22 148 102 95 221 150 358 166 79 9 132 6 223 -14z m2560 0 c94
-21 200 -77 275 -146 97 -89 97 -89 28 -154 -101 -96 -94 -94 -160 -33 -102
92 -231 136 -350 117 -81 -12 -168 -56 -236 -117 -66 -61 -59 -63 -160 33 -69
64 -69 64 22 148 102 95 221 150 358 166 79 9 132 6 223 -14z m2560 0 c94 -21
200 -77 275 -146 97 -89 97 -89 28 -154 -101 -96 -94 -94 -160 -33 -102 92
-231 136 -350 117 -81 -12 -168 -56 -236 -117 -66 -61 -59 -63 -160 33 -69 64
-69 64 22 148 102 95 221 150 358 166 79 9 132 6 223 -14z m-8848 -228 c192
-49 356 -144 505 -293 104 -104 133 -148 111 -168 -18 -18 -158 -75 -183 -75
-12 0 -43 26 -78 65 -72 80 -160 144 -269 194 -125 58 -202 75 -348 75 -146 0
-223 -17 -348 -75 -111 -51 -196 -113 -275 -200 l-65 -71 -89 37 c-48 21 -94
43 -101 50 -19 17 -5 42 71 128 163 185 406 318 653 357 101 16 306 4 416 -24z
m2560 0 c192 -49 356 -144 505 -293 104 -104 133 -148 111 -168 -18 -18 -158
-75 -183 -75 -12 0 -43 26 -78 65 -72 80 -160 144 -269 194 -125 58 -202 75
-348 75 -146 0 -223 -17 -348 -75 -111 -51 -196 -113 -275 -200 l-65 -71 -89
37 c-48 21 -94 43 -101 50 -19 17 -5 42 71 128 163 185 406 318 653 357 101
16 306 4 416 -24z m2560 0 c192 -49 356 -144 505 -293 104 -104 133 -148 111
-168 -18 -18 -158 -75 -183 -75 -12 0 -43 26 -78 65 -72 80 -160 144 -269 194
-125 58 -202 75 -348 75 -146 0 -223 -17 -348 -75 -111 -51 -196 -113 -275
-200 l-65 -71 -89 37 c-48 21 -94 43 -101 50 -19 17 -5 42 71 128 163 185 406
318 653 357 101 16 306 4 416 -24z m2561 0 c116 -30 263 -97 356 -163 78 -56
234 -210 257 -255 13 -25 14 -33 2 -43 -18 -18 -158 -75 -183 -75 -12 0 -43
26 -78 65 -72 80 -160 144 -269 194 -125 58 -202 75 -348 75 -146 0 -223 -17
-348 -75 -111 -51 -196 -113 -275 -200 l-65 -71 -89 37 c-48 21 -94 43 -101
50 -19 17 -5 42 71 128 163 185 406 318 653 357 102 16 306 4 417 -24z m2560
0 c116 -30 263 -97 356 -163 78 -56 234 -210 257 -255 13 -25 14 -33 2 -43
-18 -18 -158 -75 -183 -75 -12 0 -43 26 -78 65 -72 80 -160 144 -269 194 -125
58 -202 75 -348 75 -146 0 -223 -17 -348 -75 -111 -51 -196 -113 -275 -200
l-65 -71 -89 37 c-48 21 -94 43 -101 50 -19 17 -5 42 71 128 163 185 406 318
653 357 102 16 306 4 417 -24z m-9130 -202 c45 -23 76 -53 97 -95 16 -30 17
-42 8 -73 -6 -20 -17 -36 -25 -37 -7 0 -85 0 -173 0 -88 0 -166 0 -173 0 -8 1
-19 17 -25 37 -9 30 -8 43 5 68 54 108 182 153 286 100z m2560 0 c45 -23 76
-53 97 -95 16 -30 17 -42 8 -73 -6 -20 -17 -36 -25 -37 -7 0 -85 0 -173 0 -88
0 -166 0 -173 0 -8 1 -19 17 -25 37 -9 30 -8 43 5 68 54 108 182 153 286 100z
m2560 0 c45 -23 76 -53 97 -95 16 -30 17 -42 8 -73 -6 -20 -17 -36 -25 -37 -7
0 -85 0 -173 0 -88 0 -166 0 -173 0 -8 1 -19 17 -25 37 -9 30 -8 43 5 68 54
108 182 153 286 100z m2560 0 c45 -23 76 -53 97 -95 16 -30 17 -42 8 -73 -6
-20 -17 -36 -25 -37 -7 0 -85 0 -173 0 -88 0 -166 0 -173 0 -8 1 -19 17 -25
37 -9 30 -8 43 5 68 54 108 182 153 286 100z m-8845 -226 c92 -33 185 -94 252
-164 37 -39 49 -58 43 -69 -10 -16 -141 -135 -150 -135 -3 0 -28 21 -57 46
-108 98 -189 129 -321 122 -100 -5 -183 -42 -267 -117 -31 -28 -59 -51 -62
-51 -8 0 -139 119 -149 135 -6 11 6 29 40 66 78 83 181 146 298 181 92 27 275
20 373 -14z m2560 0 c92 -33 185 -94 252 -164 37 -39 49 -58 43 -69 -10 -16
-141 -135 -150 -135 -3 0 -28 21 -57 46 -108 98 -189 129 -321 122 -100 -5
-183 -42 -267 -117 -31 -28 -59 -51 -62 -51 -8 0 -139 119 -149 135 -6 11 6
29 40 66 78 83 181 146 298 181 92 27 275 20 373 -14z m2560 0 c92 -33 185
-94 252 -164 37 -39 49 -58 43 -69 -10 -16 -141 -135 -150 -135 -3 0 -28 21
-57 46 -108 98 -189 129 -321 122 -100 -5 -183 -42 -267 -117 -31 -28 -59 -51
-62 -51 -8 0 -139 119 -149 135 -6 11 6 29 40 66 78 83 181 146 298 181 92 27
275 20 373 -14z m2560 0 c92 -33 185 -94 252 -164 37 -39 49 -58 43 -69 -10
-16 -141 -135 -150 -135 -3 0 -28 21 -57 46 -108 98 -189 129 -321 122 -100
-5 -183 -42 -267 -117 -31 -28 -59 -51 -62 -51 -8 0 -139 119 -149 135 -6 11
6 29 40 66 78 83 181 146 298 181 92 27 275 20 373 -14z m2560 0 c92 -33 185
-94 252 -164 37 -39 49 -58 43 -69 -10 -16 -141 -135 -150 -135 -3 0 -28 21
-57 46 -108 98 -189 129 -321 122 -100 -5 -183 -42 -267 -117 -31 -28 -59 -51
-62 -51 -8 0 -139 119 -149 135 -6 11 6 29 40 66 78 83 181 146 298 181 92 27
275 20 373 -14z m-8903 -212 c197 -50 414 -183 541 -333 82 -97 90 -111 73
-128 -19 -18 -159 -75 -184 -75 -12 0 -43 26 -78 65 -102 114 -265 211 -422
251 -97 24 -295 24 -390 0 -161 -42 -317 -136 -428 -257 l-65 -71 -89 37 c-48
21 -94 43 -102 51 -17 16 -9 30 73 127 153 180 406 318 651 357 104 16 307 4
420 -24z m2560 0 c197 -50 414 -183 541 -333 82 -97 90 -111 73 -128 -19 -18
-159 -75 -184 -75 -12 0 -43 26 -78 65 -102 114 -265 211 -422 251 -97 24
-295 24 -390 0 -161 -42 -317 -136 -428 -257 l-65 -71 -89 37 c-48 21 -94 43
-102 51 -17 16 -9 30 73 127 153 180 406 318 651 357 104 16 307 4 420 -24z
m2560 0 c197 -50 414 -183 541 -333 82 -97 90 -111 73 -128 -19 -18 -159 -75
-184 -75 -12 0 -43 26 -78 65 -102 114 -265 211 -422 251 -97 24 -295 24 -390
0 -161 -42 -317 -136 -428 -257 l-65 -71 -89 37 c-48 21 -94 43 -102 51 -17
16 -9 30 73 127 153 180 406 318 651 357 104 16 307 4 420 -24z m2560 0 c197
-50 414 -183 541 -333 82 -97 90 -111 73 -128 -19 -18 -159 -75 -184 -75 -12
0 -43 26 -78 65 -102 114 -265 211 -422 251 -97 24 -295 24 -390 0 -161 -42
-317 -136 -428 -257 l-65 -71 -89 37 c-48 21 -94 43 -102 51 -17 16 -9 30 73
127 153 180 406 318 651 357 104 16 307 4 420 -24z m-9132 -202 c45 -23 76
-53 98 -97 19 -35 19 -39 3 -72 -9 -19 -20 -35 -25 -36 -5 0 -81 -1 -169 -1
-88 0 -164 1 -169 1 -5 1 -16 17 -25 36 -16 32 -16 37 0 67 55 110 182 155
287 102z m2560 0 c45 -23 76 -53 98 -97 19 -35 19 -39 3 -72 -9 -19 -20 -35
-25 -36 -5 0 -81 -1 -169 -1 -88 0 -164 1 -169 1 -5 1 -16 17 -25 36 -16 32
-16 37 0 67 55 110 182 155 287 102z m2560 0 c45 -23 76 -53 98 -97 19 -35 19
-39 3 -72 -9 -19 -20 -35 -25 -36 -5 0 -81 -1 -169 -1 -88 0 -164 1 -169 1 -5
1 -16 17 -25 36 -16 32 -16 37 0 67 55 110 182 155 287 102z m2560 0 c45 -23
76 -53 98 -97 19 -35 19 -39 3 -72 -9 -19 -20 -35 -25 -36 -5 0 -81 -1 -169
-1 -88 0 -164 1 -169 1 -5 1 -16 17 -25 36 -16 32 -16 37 0 67 55 110 182 155
287 102z m2560 0 c45 -23 76 -53 98 -97 19 -35 19 -39 3 -72 -9 -19 -20 -35
-25 -36 -5 0 -81 -1 -169 -1 -88 0 -164 1 -169 1 -5 1 -16 17 -25 36 -16 32
-16 37 0 67 55 110 182 155 287 102z m-8903 -210 c94 -21 200 -77 275 -146 97
-89 97 -89 28 -154 -101 -96 -94 -94 -160 -33 -102 92 -231 136 -350 117 -81
-12 -168 -56 -236 -117 -66 -61 -59 -63 -160 33 -69 64 -69 64 22 148 102 95
221 150 358 166 79 9 132 6 223 -14z m2560 0 c94 -21 200 -77 275 -146 97 -89
97 -89 28 -154 -101 -96 -94 -94 -160 -33 -102 92 -231 136 -350 117 -81 -12
-168 -56 -236 -117 -66 -61 -59 -63 -160 33 -69 64 -69 64 22 148 102 95 221
150 358 166 79 9 132 6 223 -14z m2560 0 c94 -21 200 -77 275 -146 97 -89 97
-89 28 -154 -101 -96 -94 -94 -160 -33 -102 92 -231 136 -350 117 -81 -12
-168 -56 -236 -117 -66 -61 -59 -63 -160 33 -69 64 -69 64 22 148 102 95 221
150 358 166 79 9 132 6 223 -14z m2560 0 c94 -21 200 -77 275 -146 97 -89 97
-89 28 -154 -101 -96 -94 -94 -160 -33 -102 92 -231 136 -350 117 -81 -12
-168 -56 -236 -117 -66 -61 -59 -63 -160 33 -69 64 -69 64 22 148 102 95 221
150 358 166 79 9 132 6 223 -14z m-8848 -228 c192 -49 356 -144 505 -293 104
-104 133 -148 111 -168 -18 -18 -158 -75 -183 -75 -12 0 -43 26 -78 65 -72 80
-160 144 -269 194 -125 58 -202 75 -348 75 -146 0 -223 -17 -348 -75 -111 -51
-196 -113 -275 -200 l-65 -71 -89 37 c-48 21 -94 43 -101 50 -19 17 -5 42 71
128 163 185 406 318 653 357 101 16 306 4 416 -24z m2560 0 c192 -49 356 -144
505 -293 104 -104 133 -148 111 -168 -18 -18 -158 -75 -183 -75 -12 0 -43 26
-78 65 -72 80 -160 144 -269 194 -125 58 -202 75 -348 75 -146 0 -223 -17
-348 -75 -111 -51 -196 -113 -275 -200 l-65 -71 -89 37 c-48 21 -94 43 -101
50 -19 17 -5 42 71 128 163 185 406 318 653 357 101 16 306 4 416 -24z m2560
0 c192 -49 356 -144 505 -293 104 -104 133 -148 111 -168 -18 -18 -158 -75
-183 -75 -12 0 -43 26 -78 65 -72 80 -160 144 -269 194 -125 58 -202 75 -348
75 -146 0 -223 -17 -348 -75 -111 -51 -196 -113 -275 -200 l-65 -71 -89 37
c-48 21 -94 43 -101 50 -19 17 -5 42 71 128 163 185 406 318 653 357 101 16
306 4 416 -24z m2561 0 c116 -30 263 -97 356 -163 78 -56 234 -210 257 -255
13 -25 14 -33 2 -43 -18 -18 -158 -75 -183 -75 -12 0 -43 26 -78 65 -72 80
-160 144 -269 194 -125 58 -202 75 -348 75 -146 0 -223 -17 -348 -75 -111 -51
-196 -113 -275 -200 l-65 -71 -89 37 c-48 21 -94 43 -101 50 -19 17 -5 42 71
128 163 185 406 318 653 357 102 16 306 4 417 -24z m2560 0 c116 -30 263 -97
356 -163 78 -56 234 -210 257 -255 13 -25 14 -33 2 -43 -18 -18 -158 -75 -183
-75 -12 0 -43 26 -78 65 -72 80 -160 144 -269 194 -125 58 -202 75 -348 75
-146 0 -223 -17 -348 -75 -111 -51 -196 -113 -275 -200 l-65 -71 -89 37 c-48
21 -94 43 -101 50 -19 17 -5 42 71 128 163 185 406 318 653 357 102 16 306 4
417 -24z m-9130 -202 c45 -23 76 -53 97 -95 16 -30 17 -42 8 -73 -6 -20 -17
-36 -25 -37 -7 0 -85 0 -173 0 -88 0 -166 0 -173 0 -8 1 -19 17 -25 37 -9 30
-8 43 5 68 54 108 182 153 286 100z m2560 0 c45 -23 76 -53 97 -95 16 -30 17
-42 8 -73 -6 -20 -17 -36 -25 -37 -7 0 -85 0 -173 0 -88 0 -166 0 -173 0 -8 1
-19 17 -25 37 -9 30 -8 43 5 68 54 108 182 153 286 100z m2560 0 c45 -23 76
-53 97 -95 16 -30 17 -42 8 -73 -6 -20 -17 -36 -25 -37 -7 0 -85 0 -173 0 -88
0 -166 0 -173 0 -8 1 -19 17 -25 37 -9 30 -8 43 5 68 54 108 182 153 286 100z
m2560 0 c45 -23 76 -53 97 -95 16 -30 17 -42 8 -73 -6 -20 -17 -36 -25 -37 -7
0 -85 0 -173 0 -88 0 -166 0 -173 0 -8 1 -19 17 -25 37 -9 30 -8 43 5 68 54
108 182 153 286 100z m-8845 -226 c92 -33 185 -94 252 -164 37 -39 49 -58 43
-69 -10 -16 -141 -135 -150 -135 -3 0 -28 21 -57 46 -108 98 -189 129 -321
122 -100 -5 -183 -42 -267 -117 -31 -28 -59 -51 -62 -51 -8 0 -139 119 -149
135 -6 11 6 29 40 66 78 83 181 146 298 181 92 27 275 20 373 -14z m2560 0
c92 -33 185 -94 252 -164 37 -39 49 -58 43 -69 -10 -16 -141 -135 -150 -135
-3 0 -28 21 -57 46 -108 98 -189 129 -321 122 -100 -5 -183 -42 -267 -117 -31
-28 -59 -51 -62 -51 -8 0 -139 119 -149 135 -6 11 6 29 40 66 78 83 181 146
298 181 92 27 275 20 373 -14z m2560 0 c92 -33 185 -94 252 -164 37 -39 49
-58 43 -69 -10 -16 -141 -135 -150 -135 -3 0 -28 21 -57 46 -108 98 -189 129
-321 122 -100 -5 -183 -42 -267 -117 -31 -28 -59 -51 -62 -51 -8 0 -139 119
-149 135 -6 11 6 29 40 66 78 83 181 146 298 181 92 27 275 20 373 -14z m2560
0 c92 -33 185 -94 252 -164 37 -39 49 -58 43 -69 -10 -16 -141 -135 -150 -135
-3 0 -28 21 -57 46 -108 98 -189 129 -321 122 -100 -5 -183 -42 -267 -117 -31
-28 -59 -51 -62 -51 -8 0 -139 119 -149 135 -6 11 6 29 40 66 78 83 181 146
298 181 92 27 275 20 373 -14z m2560 0 c92 -33 185 -94 252 -164 37 -39 49
-58 43 -69 -10 -16 -141 -135 -150 -135 -3 0 -28 21 -57 46 -108 98 -189 129
-321 122 -100 -5 -183 -42 -267 -117 -31 -28 -59 -51 -62 -51 -8 0 -139 119
-149 135 -6 11 6 29 40 66 78 83 181 146 298 181 92 27 275 20 373 -14z
m-8903 -212 c197 -50 414 -183 541 -333 82 -97 90 -111 73 -128 -19 -18 -159
-75 -184 -75 -12 0 -43 26 -78 65 -102 114 -265 211 -422 251 -97 24 -295 24
-390 0 -161 -42 -317 -136 -428 -257 l-65 -71 -89 37 c-48 21 -94 43 -102 51
-17 16 -9 30 73 127 153 180 406 318 651 357 104 16 307 4 420 -24z m2560 0
c197 -50 414 -183 541 -333 82 -97 90 -111 73 -128 -19 -18 -159 -75 -184 -75
-12 0 -43 26 -78 65 -102 114 -265 211 -422 251 -97 24 -295 24 -390 0 -161
-42 -317 -136 -428 -257 l-65 -71 -89 37 c-48 21 -94 43 -102 51 -17 16 -9 30
73 127 153 180 406 318 651 357 104 16 307 4 420 -24z m2560 0 c197 -50 414
-183 541 -333 82 -97 90 -111 73 -128 -19 -18 -159 -75 -184 -75 -12 0 -43 26
-78 65 -102 114 -265 211 -422 251 -97 24 -295 24 -390 0 -161 -42 -317 -136
-428 -257 l-65 -71 -89 37 c-48 21 -94 43 -102 51 -17 16 -9 30 73 127 153
180 406 318 651 357 104 16 307 4 420 -24z m2560 0 c197 -50 414 -183 541
-333 82 -97 90 -111 73 -128 -19 -18 -159 -75 -184 -75 -12 0 -43 26 -78 65
-102 114 -265 211 -422 251 -97 24 -295 24 -390 0 -161 -42 -317 -136 -428
-257 l-65 -71 -89 37 c-48 21 -94 43 -102 51 -17 16 -9 30 73 127 153 180 406
318 651 357 104 16 307 4 420 -24z m-9132 -202 c45 -23 76 -53 98 -97 19 -35
19 -39 3 -72 -9 -19 -20 -35 -25 -36 -5 0 -81 -1 -169 -1 -88 0 -164 1 -169 1
-5 1 -16 17 -25 36 -16 32 -16 37 0 67 55 110 182 155 287 102z m2560 0 c45
-23 76 -53 98 -97 19 -35 19 -39 3 -72 -9 -19 -20 -35 -25 -36 -5 0 -81 -1
-169 -1 -88 0 -164 1 -169 1 -5 1 -16 17 -25 36 -16 32 -16 37 0 67 55 110
182 155 287 102z m2560 0 c45 -23 76 -53 98 -97 19 -35 19 -39 3 -72 -9 -19
-20 -35 -25 -36 -5 0 -81 -1 -169 -1 -88 0 -164 1 -169 1 -5 1 -16 17 -25 36
-16 32 -16 37 0 67 55 110 182 155 287 102z m2560 0 c45 -23 76 -53 98 -97 19
-35 19 -39 3 -72 -9 -19 -20 -35 -25 -36 -5 0 -81 -1 -169 -1 -88 0 -164 1
-169 1 -5 1 -16 17 -25 36 -16 32 -16 37 0 67 55 110 182 155 287 102z m2560
0 c45 -23 76 -53 98 -97 19 -35 19 -39 3 -72 -9 -19 -20 -35 -25 -36 -5 0 -81
-1 -169 -1 -88 0 -164 1 -169 1 -5 1 -16 17 -25 36 -16 32 -16 37 0 67 55 110
182 155 287 102z m-8903 -210 c94 -21 200 -77 275 -146 97 -89 97 -89 28 -154
-101 -96 -94 -94 -160 -33 -102 92 -231 136 -350 117 -81 -12 -168 -56 -236
-117 -66 -61 -59 -63 -160 33 -69 64 -69 64 22 148 102 95 221 150 358 166 79
9 132 6 223 -14z m2560 0 c94 -21 200 -77 275 -146 97 -89 97 -89 28 -154
-101 -96 -94 -94 -160 -33 -177 161 -409 161 -586 0 -66 -61 -59 -63 -160 33
-69 64 -69 64 22 148 102 95 221 150 358 166 79 9 132 6 223 -14z m2560 0 c94
-21 200 -77 275 -146 97 -89 97 -89 28 -154 -101 -96 -94 -94 -160 -33 -102
92 -231 136 -350 117 -81 -12 -168 -56 -236 -117 -66 -61 -59 -63 -160 33 -69
64 -69 64 22 148 102 95 221 150 358 166 79 9 132 6 223 -14z m2560 0 c94 -21
200 -77 275 -146 97 -89 97 -89 28 -154 -101 -96 -94 -94 -160 -33 -102 92
-231 136 -350 117 -81 -12 -168 -56 -236 -117 -66 -61 -59 -63 -160 33 -69 64
-69 64 22 148 102 95 221 150 358 166 79 9 132 6 223 -14z"/>
<path d="M1155 190 c-124 -20 -298 -94 -375 -160 l-35 -29 535 0 535 0 -35 30
c-48 42 -221 124 -302 144 -83 20 -243 27 -323 15z"/>
<path d="M3715 190 c-124 -20 -298 -94 -375 -160 l-35 -29 535 0 535 0 -35 30
c-48 42 -221 124 -302 144 -83 20 -243 27 -323 15z"/>
<path d="M6275 190 c-124 -20 -298 -94 -375 -160 l-35 -29 535 0 535 0 -35 30
c-48 42 -221 124 -302 144 -83 20 -243 27 -323 15z"/>
<path d="M8835 190 c-124 -20 -298 -94 -375 -160 l-35 -29 535 0 535 0 -35 30
c-48 42 -221 124 -302 144 -83 20 -243 27 -323 15z"/>
<path d="M11395 190 c-124 -20 -298 -94 -375 -160 l-35 -29 535 0 535 0 -35
30 c-48 42 -221 124 -302 144 -83 20 -243 27 -323 15z"/>
</g>
</svg>
